<svg viewBox="0 0 800 600" xmlns="http://www.w3.org/2000/svg">
  <!-- Background -->
  <rect width="800" height="600" fill="#3c323e" />
  
  <!-- Decorative background elements -->
  <circle cx="100" cy="500" r="200" fill="#4a3e4c" opacity="0.4" />
  <circle cx="700" cy="100" r="150" fill="#473948" opacity="0.5" />
  <path d="M-50,300 Q200,100 400,350 T850,250" stroke="#534759" stroke-width="30" fill="none" opacity="0.3" />
  
  <!-- Main quiz panel -->
  <rect x="150" y="120" width="500" height="360" rx="20" fill="#2a2231" filter="drop-shadow(0 10px 15px rgba(0,0,0,0.3))" />
  
  <!-- Quiz header -->
  <rect x="150" y="120" width="500" height="80" rx="20" fill="#e6a85d" />
  <rect x="150" y="180" width="500" height="20" fill="#e6a85d" />
  
  <!-- Header text -->
  <text x="400" y="170" font-family="Arial, sans-serif" font-size="28" font-weight="bold" fill="#2a2231" text-anchor="middle">PERSONALITY QUIZ</text>
  
  <!-- Quiz question -->
  <text x="400" y="240" font-family="Arial, sans-serif" font-size="24" font-weight="bold" fill="#ffffff" text-anchor="middle">Which element describes you best?</text>
  
  <!-- Answer options with creative shapes -->
  <!-- Option 1 -->
  <g transform="translate(200, 300)">
    <circle cx="0" cy="0" r="40" fill="#5dadbd" />
    <path d="M-20,-10 Q0,-30 20,-10 Q35,5 20,20 Q0,30 -20,20 Q-35,5 -20,-10" fill="#4a97a7" />
    <text x="0" y="5" font-family="Arial, sans-serif" font-size="18" font-weight="bold" fill="#ffffff" text-anchor="middle">Water</text>
  </g>
  
  <!-- Option 2 -->
  <g transform="translate(330, 300)">
    <polygon points="0,-40 35,20 -35,20" fill="#e65d5e" />
    <polygon points="0,-20 20,10 -20,10" fill="#d34a4b" />
    <text x="0" y="40" font-family="Arial, sans-serif" font-size="18" font-weight="bold" fill="#ffffff" text-anchor="middle">Fire</text>
  </g>
  
  <!-- Option 3 -->
  <g transform="translate(470, 300)">
    <rect x="-40" y="-40" width="80" height="80" fill="#6abe76" />
    <path d="M-25,-25 L25,-25 L25,25 L-25,25 Z" fill="#58a864" stroke="#58a864" stroke-width="5" />
    <text x="0" y="60" font-family="Arial, sans-serif" font-size="18" font-weight="bold" fill="#ffffff" text-anchor="middle">Earth</text>
  </g>
  
  <!-- Option 4 -->
  <g transform="translate(600, 300)">
    <circle cx="0" cy="0" r="40" fill="#c388db" />
    <path d="M-30,-10 Q0,-30 30,-10 Q30,10 0,30 Q-30,10 -30,-10" fill="#b376cc" stroke="#b376cc" stroke-width="2" />
    <text x="0" y="60" font-family="Arial, sans-serif" font-size="18" font-weight="bold" fill="#ffffff" text-anchor="middle">Air</text>
  </g>
  
  <!-- Progress dots -->
  <circle cx="350" cy="420" r="8" fill="#e6a85d" />
  <circle cx="380" cy="420" r="8" fill="rgba(255,255,255,0.3)" />
  <circle cx="410" cy="420" r="8" fill="rgba(255,255,255,0.3)" />
  <circle cx="440" cy="420" r="8" fill="rgba(255,255,255,0.3)" />
  
  <!-- Continue button -->
  <rect x="325" y="450" width="150" height="50" rx="25" fill="#e6a85d" />
  <text x="400" y="482" font-family="Arial, sans-serif" font-size="20" font-weight="bold" fill="#2a2231" text-anchor="middle">NEXT</text>
  
  <!-- Overflow elements that extend beyond the main panel -->
  <circle cx="100" cy="200" r="70" fill="#e6a85d" opacity="0.7" />
  <circle cx="700" cy="400" r="90" fill="#e6a85d" opacity="0.7" />
  <path d="M650,120 Q800,200 700,350" stroke="#e6a85d" stroke-width="15" fill="none" opacity="0.5" />
  <path d="M150,350 Q0,450 100,550" stroke="#e6a85d" stroke-width="15" fill="none" opacity="0.5" />
</svg>
